<?xml version="1.0" encoding="UTF-8"?>
<svg id="Capa_1" xmlns="http://www.w3.org/2000/svg" xmlns:xlink="http://www.w3.org/1999/xlink" version="1.1" viewBox="0 0 500 192.72">
  <!-- Generator: Adobe Illustrator 30.0.0, SVG Export Plug-In . SVG Version: 2.1.1 Build 123)  -->
  <defs>
    <style>
      .st0 {
        fill: #3f255b;
      }

      .st1 {
        fill: none;
      }

      .st2 {
        fill: #41255e;
      }

      .st3 {
        fill: #60299d;
      }

      .st4 {
        fill: #662aaa;
      }

      .st5 {
        fill: #452667;
      }

      .st6 {
        fill: #832de3;
      }

      .st7 {
        fill: #6f2bbc;
      }

      .st8 {
        fill: #762bc9;
      }

      .st9 {
        fill: #6629a9;
      }

      .st10 {
        fill: #41255f;
      }

      .st11 {
        fill: #6b2ab3;
      }

      .st12 {
        fill: #552886;
      }

      .st13 {
        fill: #422560;
      }

      .st14 {
        fill: #7e2cda;
      }

      .st15 {
        fill: #5a2891;
      }

      .st16 {
        fill: #6a2ab2;
      }

      .st17 {
        fill: #6329a3;
      }

      .st18 {
        fill: #452666;
      }

      .st19 {
        fill: #752bc8;
      }

      .st20 {
        fill: #522780;
      }

      .st21 {
        fill: #422561;
      }

      .st22 {
        fill: #562889;
      }

      .st23 {
        fill: #60299c;
      }

      .st24 {
        fill: #4d2777;
      }

      .st25 {
        fill: #702bbd;
      }

      .st26 {
        fill: #782cce;
      }

      .st27 {
        fill: #5f299a;
      }

      .st28 {
        fill: #712bc0;
      }

      .st29 {
        fill: #722bc2;
      }

      .st30 {
        fill: #6229a1;
      }

      .st31 {
        fill: #4a2671;
      }

      .st32 {
        fill: #6429a6;
      }

      .st33 {
        fill: #5c2894;
      }

      .st34 {
        fill: #6d2ab8;
      }

      .st35 {
        fill: #6529a8;
      }

      .st36 {
        fill: #682aae;
      }

      .st37 {
        fill: #6e2aba;
      }

      .st38 {
        fill: #59288f;
      }

      .st39 {
        fill: #4e2779;
      }

      .st40 {
        fill: #672aac;
      }

      .st41 {
        fill: #5d2896;
      }

      .st42 {
        fill: #5b2892;
      }

      .st43 {
        fill: #6529a7;
      }

      .st44 {
        fill: #692aaf;
      }

      .st45 {
        fill: #57288a;
      }

      .st46 {
        fill: #5d2997;
      }

      .st47 {
        fill: #6c2ab5;
      }

      .st48 {
        fill: #812de0;
      }

      .st49 {
        fill: #532783;
      }

      .st50 {
        fill: #7e2cd9;
      }

      .st51 {
        fill: #4e2778;
      }

      .st52 {
        fill: #40255d;
      }

      .st53 {
        fill: #47266a;
      }

      .st54 {
        fill: #5e2999;
      }

      .st55 {
        fill: #7b2cd3;
      }

      .st56 {
        fill: #792cd0;
      }

      .st57 {
        fill: #61299f;
      }

      .st58 {
        fill: #462668;
      }

      .st59 {
        fill: #7c2cd6;
      }

      .st60 {
        fill: #742bc5;
      }

      .st61 {
        fill: #40255c;
      }

      .st62 {
        fill: #47266b;
      }

      .st63 {
        fill: #822de2;
      }

      .st64 {
        fill: #58288c;
      }

      .st65 {
        fill: #fff;
      }

      .st66 {
        fill: #7b2cd4;
      }

      .st67 {
        fill: #7f2cdb;
      }

      .st68 {
        fill: #6f2bbb;
      }

      .st69 {
        fill: #442664;
      }

      .st70 {
        fill: #6d2ab7;
      }

      .st71 {
        fill: #7a2cd2;
      }

      .st72 {
        fill: #4b2673;
      }

      .st73 {
        fill: #49266e;
      }

      .st74 {
        fill: #762bca;
      }

      .st75 {
        fill: #48266d;
      }

      .st76 {
        fill: #562888;
      }

      .st77 {
        fill: #6229a2;
      }

      .st78 {
        fill: #522781;
      }

      .st79 {
        fill: #48266c;
      }

      .st80 {
        fill: #752bc7;
      }

      .st81 {
        fill: #58288d;
      }

      .st82 {
        fill: #6329a4;
      }

      .st83 {
        fill: #5a2890;
      }

      .st84 {
        fill: #542785;
      }

      .st85 {
        fill: #4f277b;
      }

      .st86 {
        fill: #772ccc;
      }

      .st87 {
        fill: #6a2ab1;
      }

      .st88 {
        fill: #802cdd;
      }

      .st89 {
        fill: #4b2672;
      }

      .st90 {
        fill: #5f299b;
      }

      .st91 {
        fill: #702bbe;
      }

      .st92 {
        fill: #542784;
      }

      .st93 {
        fill: #6b2ab4;
      }

      .st94 {
        fill: #432663;
      }

      .st95 {
        fill: #5c2895;
      }

      .st96 {
        fill: #712bbf;
      }

      .st97 {
        fill: #462669;
      }

      .st98 {
        fill: #6429a5;
      }

      .st99 {
        fill: #782ccd;
      }

      .st100 {
        fill: #442665;
      }

      .st101 {
        fill: #552887;
      }

      .st102 {
        fill: #832de4;
      }

      .st103 {
        fill: #49266f;
      }

      .st104 {
        fill: #732bc4;
      }

      .st105 {
        fill: #432562;
      }

      .st106 {
        fill: #61299e;
      }

      .st107 {
        fill: #59288e;
      }

      .st108 {
        fill: #7a2cd1;
      }

      .st109 {
        fill: #842de6;
      }

      .st110 {
        fill: #672aab;
      }

      .st111 {
        fill: #722bc1;
      }

      .st112 {
        fill: #812ddf;
      }

      .st113 {
        fill: #7d2cd7;
      }

      .st114 {
        fill: #57288b;
      }

      .st115 {
        fill: #6c2ab6;
      }

      .st116 {
        fill: #692ab0;
      }

      .st117 {
        fill: #742bc6;
      }

      .st118 {
        fill: #4f277a;
      }

      .st119 {
        fill: #802dde;
      }

      .st120 {
        fill: #7f2cdc;
      }

      .st121 {
        fill: #4c2674;
      }

      .st122 {
        fill: #3f255a;
      }

      .st123 {
        fill: #51277f;
      }

      .st124 {
        fill: #51277e;
      }

      .st125 {
        fill: #5e2998;
      }

      .st126 {
        fill: #50277c;
      }

      .st127 {
        fill: #50277d;
      }

      .st128 {
        fill: #532782;
      }

      .st129 {
        fill: #842de5;
      }

      .st130 {
        fill: #6e2ab9;
      }

      .st131 {
        clip-path: url(#clippath);
      }

      .st132 {
        fill: #822de1;
      }

      .st133 {
        fill: #7d2cd8;
      }

      .st134 {
        fill: #7c2cd5;
      }

      .st135 {
        fill: #772bcb;
      }

      .st136 {
        fill: #732bc3;
      }

      .st137 {
        fill: #792ccf;
      }

      .st138 {
        fill: #4a2670;
      }

      .st139 {
        fill: #5b2893;
      }

      .st140 {
        fill: #682aad;
      }
    </style>
    <clipPath id="clippath">
      <path class="st1" d="M217.63,36.08c0-5.68,4.47-10.15,10.15-10.15s10.15,4.47,10.15,10.15-4.67,10.15-10.15,10.15-10.15-4.67-10.15-10.15ZM219.66,67.74c0-4.46,3.45-8.12,8.12-8.12s8.12,3.65,8.12,8.12v90.32c0,4.67-3.65,8.32-8.12,8.32s-8.12-3.65-8.12-8.32v-90.32Z"/>
    </clipPath>
  </defs>
  <path class="st65" d="M22.38,113c0-30.04,23.14-53.78,53.58-53.78s53.38,23.75,53.38,53.78-22.93,53.79-53.38,53.79-53.58-23.75-53.58-53.79ZM112.9,113c0-21.51-16.03-38.76-36.94-38.76s-37.14,17.25-37.14,38.76,16.24,38.77,37.14,38.77,36.94-17.45,36.94-38.77Z"/>
  <path class="st65" d="M152.27,103.06c0-26.18,16.64-43.84,41.81-43.84,4.06,0,7.51,3.25,7.51,7.51s-3.45,7.51-7.51,7.51c-15.02,0-25.57,9.95-25.57,28.82v55c0,4.67-3.65,8.32-8.12,8.32s-8.12-3.65-8.12-8.32v-55Z"/>
  <g class="st131">
    <polygon class="st109" points="229.75 166.38 235.89 162.84 235.89 166.38 229.75 166.38"/>
    <polygon class="st109" points="227.98 166.38 235.89 161.82 235.89 162.84 229.75 166.38 227.98 166.38"/>
    <polygon class="st129" points="226.22 166.38 235.89 160.8 235.89 161.82 227.98 166.38 226.22 166.38"/>
    <polygon class="st102" points="224.46 166.38 235.89 159.78 235.89 160.8 226.22 166.38 224.46 166.38"/>
    <polygon class="st6" points="222.7 166.38 235.89 158.77 235.89 159.78 224.46 166.38 222.7 166.38"/>
    <polygon class="st63" points="220.93 166.38 235.89 157.75 235.89 158.77 222.7 166.38 220.93 166.38"/>
    <polygon class="st132" points="220.27 166.38 219.99 165.91 235.89 156.73 235.89 157.75 220.93 166.38 220.27 166.38"/>
    <polygon class="st48" points="219.99 165.91 219.66 165.32 219.66 165.09 235.89 155.71 235.89 156.73 219.99 165.91"/>
    <polygon class="st112" points="219.66 164.07 235.89 154.7 235.89 155.71 219.66 165.09 219.66 164.07"/>
    <polygon class="st119" points="219.66 163.05 235.89 153.68 235.89 154.7 219.66 164.07 219.66 163.05"/>
    <polygon class="st88" points="219.66 162.04 235.89 152.66 235.89 153.68 219.66 163.05 219.66 162.04"/>
    <polygon class="st120" points="219.66 161.02 235.89 151.64 235.89 152.66 219.66 162.04 219.66 161.02"/>
    <polygon class="st67" points="219.66 160 235.89 150.63 235.89 151.64 219.66 161.02 219.66 160"/>
    <polygon class="st14" points="219.66 158.98 235.89 149.61 235.89 150.63 219.66 160 219.66 158.98"/>
    <polygon class="st50" points="219.66 157.97 235.89 148.59 235.89 149.61 219.66 158.98 219.66 157.97"/>
    <polygon class="st133" points="219.66 156.95 235.89 147.57 235.89 148.59 219.66 157.97 219.66 156.95"/>
    <polygon class="st113" points="219.66 155.93 235.89 146.56 235.89 147.57 219.66 156.95 219.66 155.93"/>
    <polygon class="st59" points="219.66 154.91 235.89 145.54 235.89 146.56 219.66 155.93 219.66 154.91"/>
    <polygon class="st134" points="219.66 153.9 235.89 144.52 235.89 145.54 219.66 154.91 219.66 153.9"/>
    <polygon class="st66" points="219.66 152.88 235.89 143.5 235.89 144.52 219.66 153.9 219.66 152.88"/>
    <polygon class="st55" points="219.66 151.86 235.89 142.49 235.89 143.5 219.66 152.88 219.66 151.86"/>
    <polygon class="st71" points="219.66 150.84 235.89 141.47 235.89 142.49 219.66 151.86 219.66 150.84"/>
    <polygon class="st108" points="219.66 149.83 235.89 140.45 235.89 141.47 219.66 150.84 219.66 149.83"/>
    <polygon class="st56" points="219.66 148.81 235.89 139.43 235.89 140.45 219.66 149.83 219.66 148.81"/>
    <polygon class="st137" points="219.66 147.79 235.89 138.42 235.89 139.43 219.66 148.81 219.66 147.79"/>
    <polygon class="st26" points="219.66 146.77 235.89 137.4 235.89 138.42 219.66 147.79 219.66 146.77"/>
    <polygon class="st99" points="219.66 145.76 235.89 136.38 235.89 137.4 219.66 146.77 219.66 145.76"/>
    <polygon class="st86" points="219.66 144.74 235.89 135.37 235.89 136.38 219.66 145.76 219.66 144.74"/>
    <polygon class="st135" points="219.66 143.72 235.89 134.35 235.89 135.37 219.66 144.74 219.66 143.72"/>
    <polygon class="st74" points="219.66 142.7 235.89 133.33 235.89 134.35 219.66 143.72 219.66 142.7"/>
    <polygon class="st8" points="219.66 141.69 235.89 132.31 235.89 133.33 219.66 142.7 219.66 141.69"/>
    <polygon class="st19" points="219.66 140.67 235.89 131.3 235.89 132.31 219.66 141.69 219.66 140.67"/>
    <polygon class="st80" points="219.66 139.65 235.89 130.28 235.89 131.3 219.66 140.67 219.66 139.65"/>
    <polygon class="st117" points="219.66 138.63 235.89 129.26 235.89 130.28 219.66 139.65 219.66 138.63"/>
    <polygon class="st60" points="219.66 137.62 235.89 128.24 235.89 129.26 219.66 138.63 219.66 137.62"/>
    <polygon class="st104" points="219.66 136.6 235.89 127.23 235.89 128.24 219.66 137.62 219.66 136.6"/>
    <polygon class="st136" points="219.66 135.58 235.89 126.21 235.89 127.23 219.66 136.6 219.66 135.58"/>
    <polygon class="st29" points="219.66 134.56 235.89 125.19 235.89 126.21 219.66 135.58 219.66 134.56"/>
    <polygon class="st111" points="219.66 133.55 235.89 124.17 235.89 125.19 219.66 134.56 219.66 133.55"/>
    <polygon class="st28" points="219.66 132.53 235.89 123.16 235.89 124.17 219.66 133.55 219.66 132.53"/>
    <polygon class="st96" points="219.66 131.51 235.89 122.14 235.89 123.16 219.66 132.53 219.66 131.51"/>
    <polygon class="st91" points="219.66 130.5 235.89 121.12 235.89 122.14 219.66 131.51 219.66 130.5"/>
    <polygon class="st25" points="219.66 129.48 235.89 120.1 235.89 121.12 219.66 130.5 219.66 129.48"/>
    <polygon class="st7" points="219.66 128.46 235.89 119.09 235.89 120.1 219.66 129.48 219.66 128.46"/>
    <polygon class="st68" points="219.66 127.44 235.89 118.07 235.89 119.09 219.66 128.46 219.66 127.44"/>
    <polygon class="st37" points="219.66 126.43 235.89 117.05 235.89 118.07 219.66 127.44 219.66 126.43"/>
    <polygon class="st130" points="219.66 125.41 235.89 116.03 235.89 117.05 219.66 126.43 219.66 125.41"/>
    <polygon class="st34" points="219.66 124.39 235.89 115.02 235.89 116.03 219.66 125.41 219.66 124.39"/>
    <polygon class="st70" points="219.66 123.37 235.89 114 235.89 115.02 219.66 124.39 219.66 123.37"/>
    <polygon class="st115" points="219.66 122.36 235.89 112.98 235.89 114 219.66 123.37 219.66 122.36"/>
    <polygon class="st47" points="219.66 121.34 235.89 111.96 235.89 112.98 219.66 122.36 219.66 121.34"/>
    <polygon class="st93" points="219.66 120.32 235.89 110.95 235.89 111.96 219.66 121.34 219.66 120.32"/>
    <polygon class="st11" points="219.66 119.3 235.89 109.93 235.89 110.95 219.66 120.32 219.66 119.3"/>
    <polygon class="st16" points="219.66 118.29 235.89 108.91 235.89 109.93 219.66 119.3 219.66 118.29"/>
    <polygon class="st87" points="219.66 117.27 235.89 107.9 235.89 108.91 219.66 118.29 219.66 117.27"/>
    <polygon class="st116" points="219.66 116.25 235.89 106.88 235.89 107.9 219.66 117.27 219.66 116.25"/>
    <polygon class="st44" points="219.66 115.23 235.89 105.86 235.89 106.88 219.66 116.25 219.66 115.23"/>
    <polygon class="st36" points="219.66 114.22 235.89 104.84 235.89 105.86 219.66 115.23 219.66 114.22"/>
    <polygon class="st140" points="219.66 113.2 235.89 103.83 235.89 104.84 219.66 114.22 219.66 113.2"/>
    <polygon class="st40" points="219.66 112.18 235.89 102.81 235.89 103.83 219.66 113.2 219.66 112.18"/>
    <polygon class="st110" points="219.66 111.16 235.89 101.79 235.89 102.81 219.66 112.18 219.66 111.16"/>
    <polygon class="st4" points="219.66 110.15 235.89 100.77 235.89 101.79 219.66 111.16 219.66 110.15"/>
    <polygon class="st9" points="219.66 109.13 235.89 99.76 235.89 100.77 219.66 110.15 219.66 109.13"/>
    <polygon class="st35" points="219.66 108.11 235.89 98.74 235.89 99.76 219.66 109.13 219.66 108.11"/>
    <polygon class="st43" points="219.66 107.09 235.89 97.72 235.89 98.74 219.66 108.11 219.66 107.09"/>
    <polygon class="st32" points="219.66 106.08 235.89 96.7 235.89 97.72 219.66 107.09 219.66 106.08"/>
    <polygon class="st98" points="219.66 105.06 235.89 95.69 235.89 96.7 219.66 106.08 219.66 105.06"/>
    <polygon class="st82" points="219.66 104.04 235.89 94.67 235.89 95.69 219.66 105.06 219.66 104.04"/>
    <polygon class="st17" points="219.66 103.03 235.89 93.65 235.89 94.67 219.66 104.04 219.66 103.03"/>
    <polygon class="st77" points="219.66 102.01 235.89 92.63 235.89 93.65 219.66 103.03 219.66 102.01"/>
    <polygon class="st30" points="219.66 100.99 235.89 91.62 235.89 92.63 219.66 102.01 219.66 100.99"/>
    <polygon class="st57" points="219.66 99.97 235.89 90.6 235.89 91.62 219.66 100.99 219.66 99.97"/>
    <polygon class="st106" points="219.66 98.96 235.89 89.58 235.89 90.6 219.66 99.97 219.66 98.96"/>
    <polygon class="st3" points="219.66 97.94 235.89 88.56 235.89 89.58 219.66 98.96 219.66 97.94"/>
    <polygon class="st23" points="219.66 96.92 235.89 87.55 235.89 88.56 219.66 97.94 219.66 96.92"/>
    <polygon class="st90" points="219.66 95.9 235.89 86.53 235.89 87.55 219.66 96.92 219.66 95.9"/>
    <polygon class="st27" points="219.66 94.89 235.89 85.51 235.89 86.53 219.66 95.9 219.66 94.89"/>
    <polygon class="st54" points="219.66 93.87 235.89 84.49 235.89 85.51 219.66 94.89 219.66 93.87"/>
    <polygon class="st125" points="219.66 92.85 235.89 83.48 235.89 84.49 219.66 93.87 219.66 92.85"/>
    <polygon class="st46" points="219.66 91.83 235.89 82.46 235.89 83.48 219.66 92.85 219.66 91.83"/>
    <polygon class="st41" points="219.66 90.82 235.89 81.44 235.89 82.46 219.66 91.83 219.66 90.82"/>
    <polygon class="st95" points="219.66 89.8 235.89 80.42 235.89 81.44 219.66 90.82 219.66 89.8"/>
    <polygon class="st33" points="219.66 88.78 235.89 79.41 235.89 80.42 219.66 89.8 219.66 88.78"/>
    <polygon class="st139" points="219.66 87.76 235.89 78.39 235.89 79.41 219.66 88.78 219.66 87.76"/>
    <polygon class="st42" points="219.66 86.75 235.89 77.37 235.89 78.39 219.66 87.76 219.66 86.75"/>
    <polygon class="st15" points="219.66 85.73 235.89 76.36 235.89 77.37 219.66 86.75 219.66 85.73"/>
    <polygon class="st83" points="219.66 84.71 235.89 75.34 235.89 76.36 219.66 85.73 219.66 84.71"/>
    <polygon class="st38" points="219.66 83.69 235.89 74.32 235.89 75.34 219.66 84.71 219.66 83.69"/>
    <polygon class="st107" points="219.66 82.68 235.89 73.3 235.89 74.32 219.66 83.69 219.66 82.68"/>
    <polygon class="st81" points="219.66 81.66 235.89 72.29 235.89 73.3 219.66 82.68 219.66 81.66"/>
    <polygon class="st64" points="219.66 80.64 235.89 71.27 235.89 72.29 219.66 81.66 219.66 80.64"/>
    <polygon class="st114" points="219.66 79.62 235.89 70.25 235.89 71.27 219.66 80.64 219.66 79.62"/>
    <polygon class="st45" points="219.66 78.61 235.89 69.23 235.89 70.25 219.66 79.62 219.66 78.61"/>
    <polygon class="st22" points="219.66 77.59 235.89 68.22 235.89 69.23 219.66 78.61 219.66 77.59"/>
    <polygon class="st76" points="219.66 76.57 235.89 67.2 235.89 68.22 219.66 77.59 219.66 76.57"/>
    <polygon class="st101" points="219.66 75.55 235.89 66.18 235.89 67.2 219.66 76.57 219.66 75.55"/>
    <polygon class="st12" points="219.66 74.54 235.89 65.16 235.89 66.18 219.66 75.55 219.66 74.54"/>
    <polygon class="st84" points="219.66 73.52 235.89 64.15 235.89 65.16 219.66 74.54 219.66 73.52"/>
    <polygon class="st92" points="219.66 72.5 235.89 63.13 235.89 64.15 219.66 73.52 219.66 72.5"/>
    <polygon class="st49" points="219.66 71.49 235.89 62.11 235.89 63.13 219.66 72.5 219.66 71.49"/>
    <polygon class="st128" points="219.66 70.47 235.89 61.09 235.89 62.11 219.66 71.49 219.66 70.47"/>
    <polygon class="st78" points="219.66 69.45 235.63 60.23 235.89 60.68 235.89 61.09 219.66 70.47 219.66 69.45"/>
    <polygon class="st20" points="219.66 68.43 234.91 59.62 235.28 59.62 235.63 60.23 219.66 69.45 219.66 68.43"/>
    <polygon class="st123" points="219.66 67.42 233.15 59.62 234.91 59.62 219.66 68.43 219.66 67.42"/>
    <polygon class="st124" points="219.66 66.4 231.39 59.62 233.15 59.62 219.66 67.42 219.66 66.4"/>
    <polygon class="st127" points="219.66 65.38 229.63 59.62 231.39 59.62 219.66 66.4 219.66 65.38"/>
    <polygon class="st126" points="219.66 64.36 227.86 59.62 229.63 59.62 219.66 65.38 219.66 64.36"/>
    <polygon class="st85" points="219.66 63.35 226.1 59.62 227.86 59.62 219.66 64.36 219.66 63.35"/>
    <polygon class="st118" points="219.66 62.33 224.34 59.62 226.1 59.62 219.66 63.35 219.66 62.33"/>
    <polygon class="st39" points="219.66 61.31 222.58 59.62 224.34 59.62 219.66 62.33 219.66 61.31"/>
    <polygon class="st51" points="219.66 60.29 220.82 59.62 222.58 59.62 219.66 61.31 219.66 60.29"/>
    <polygon class="st24" points="220.82 59.62 219.66 60.29 219.66 59.62 220.82 59.62"/>
    <polygon class="st121" points="236.97 46.23 237.92 45.68 237.92 46.23 236.97 46.23"/>
    <polygon class="st72" points="235.21 46.23 237.92 44.66 237.92 45.68 236.97 46.23 235.21 46.23"/>
    <polygon class="st89" points="233.44 46.23 237.92 43.64 237.92 44.66 235.21 46.23 233.44 46.23"/>
    <polygon class="st31" points="231.68 46.23 237.92 42.63 237.92 43.64 233.44 46.23 231.68 46.23"/>
    <polygon class="st138" points="229.92 46.23 237.92 41.61 237.92 42.63 231.68 46.23 229.92 46.23"/>
    <polygon class="st103" points="228.16 46.23 237.92 40.59 237.92 41.61 229.92 46.23 228.16 46.23"/>
    <polygon class="st73" points="226.4 46.23 237.92 39.57 237.92 40.59 228.16 46.23 226.4 46.23"/>
    <polygon class="st75" points="224.63 46.23 237.92 38.56 237.92 39.57 226.4 46.23 224.63 46.23"/>
    <polygon class="st79" points="222.87 46.23 237.92 37.54 237.92 38.56 224.63 46.23 222.87 46.23"/>
    <polygon class="st62" points="221.11 46.23 237.92 36.52 237.92 37.54 222.87 46.23 221.11 46.23"/>
    <polygon class="st53" points="219.35 46.23 237.92 35.5 237.92 36.52 221.11 46.23 219.35 46.23"/>
    <polygon class="st97" points="218.82 46.23 218.51 45.69 237.92 34.49 237.92 35.5 219.35 46.23 218.82 46.23"/>
    <polygon class="st58" points="218.51 45.69 218.07 44.93 237.92 33.47 237.92 34.49 218.51 45.69"/>
    <polygon class="st5" points="218.07 44.93 217.63 44.17 237.92 32.45 237.92 33.47 218.07 44.93"/>
    <polygon class="st18" points="217.63 44.17 217.63 44.15 217.63 43.15 237.92 31.43 237.92 32.45 217.63 44.17"/>
    <polygon class="st100" points="217.63 42.13 237.92 30.42 237.92 31.43 217.63 43.15 217.63 42.13"/>
    <polygon class="st69" points="217.63 41.12 237.92 29.4 237.92 30.42 217.63 42.13 217.63 41.12"/>
    <polygon class="st94" points="217.63 40.1 237.92 28.38 237.92 29.4 217.63 41.12 217.63 40.1"/>
    <polygon class="st105" points="217.63 39.08 237.73 27.47 237.92 27.8 237.92 28.38 217.63 40.1 217.63 39.08"/>
    <polygon class="st21" points="217.63 38.07 237.29 26.71 237.73 27.47 217.63 39.08 217.63 38.07"/>
    <polygon class="st13" points="217.63 37.05 236.85 25.95 237.29 26.71 217.63 38.07 217.63 37.05"/>
    <polygon class="st10" points="217.63 36.03 235.12 25.93 236.84 25.93 236.85 25.95 217.63 37.05 217.63 36.03"/>
    <polygon class="st2" points="217.63 35.01 233.35 25.93 235.12 25.93 217.63 36.03 217.63 35.01"/>
    <polygon class="st52" points="217.63 34 231.59 25.93 233.35 25.93 217.63 35.01 217.63 34"/>
    <polygon class="st61" points="217.63 32.98 229.83 25.93 231.59 25.93 217.63 34 217.63 32.98"/>
    <polygon class="st0" points="217.63 31.96 228.07 25.93 229.83 25.93 217.63 32.98 217.63 31.96"/>
    <polygon class="st122" points="217.63 30.94 226.31 25.93 228.07 25.93 217.63 31.96 217.63 30.94"/>
    <polygon class="st122" points="226.31 25.93 217.63 30.94 217.63 25.93 226.31 25.93"/>
  </g>
  <path class="st65" d="M258.85,113c0-30.04,23.14-53.78,53.58-53.78s53.38,23.75,53.38,53.78-22.93,53.79-53.38,53.79-53.58-23.75-53.58-53.79ZM349.37,113c0-21.51-16.03-38.76-36.94-38.76s-37.14,17.25-37.14,38.76,16.24,38.77,37.14,38.77,36.94-17.45,36.94-38.77Z"/>
  <path class="st65" d="M388.52,106.1c0-29.43,19.69-46.89,44.45-46.89s44.65,17.46,44.65,46.89v51.96c0,4.67-3.65,8.32-8.12,8.32s-8.12-3.65-8.12-8.32v-52.37c0-20.7-12.58-31.46-28.41-31.46s-28.21,10.76-28.21,31.46v52.37c0,4.67-3.65,8.32-8.12,8.32s-8.12-3.65-8.12-8.32v-51.96Z"/>
  <path class="st65" d="M99.06,113c-17.41,3.2-20,5.8-23.21,23.21-3.2-17.41-5.8-20-23.21-23.21,17.41-3.2,20-5.8,23.21-23.21,3.2,17.41,5.8,20,23.21,23.21Z"/>
  <path class="st65" d="M335.54,113c-17.41,3.2-20,5.8-23.21,23.21-3.2-17.41-5.8-20-23.21-23.21,17.41-3.2,20-5.8,23.21-23.21,3.2,17.41,5.8,20,23.21,23.21Z"/>
  <path class="st65" d="M455.59,113c-17.41,3.2-20,5.8-23.21,23.21-3.2-17.41-5.8-20-23.21-23.21,17.41-3.2,20-5.8,23.21-23.21,3.2,17.41,5.8,20,23.21,23.21Z"/>
</svg>